<svg xmlns="http://www.w3.org/2000/svg" viewBox="0 0 500 500">
  <defs>
    <linearGradient id="bgGrad" x1="0%" y1="0%" x2="100%" y2="100%">
      <stop offset="0%" stop-color="#0a0a0a"/>
      <stop offset="50%" stop-color="#111111"/>
      <stop offset="100%" stop-color="#0a0a0a"/>
    </linearGradient>
    <linearGradient id="dinoGrad" x1="0%" y1="0%" x2="100%" y2="100%">
      <stop offset="0%" stop-color="#77FE80"/>
      <stop offset="100%" stop-color="#5DE066"/>
    </linearGradient>
    <filter id="glow" x="-50%" y="-50%" width="200%" height="200%">
      <feGaussianBlur stdDeviation="4" result="blur"/>
      <feMerge><feMergeNode in="blur"/><feMergeNode in="SourceGraphic"/></feMerge>
    </filter>
    <filter id="rarityGlow" x="-50%" y="-50%" width="200%" height="200%">
      <feGaussianBlur stdDeviation="8" result="blur"/>
      <feMerge><feMergeNode in="blur"/><feMergeNode in="SourceGraphic"/></feMerge>
    </filter>
  </defs>
  
  <!-- Background -->
  <rect width="500" height="500" fill="url(#bgGrad)"/>
  
  <!-- Border -->
  <rect x="10" y="10" width="480" height="480" rx="20" fill="none" stroke="#77FE80" stroke-width="2" opacity="0.5"/>
  <rect x="20" y="20" width="460" height="460" rx="15" fill="none" stroke="#77FE80" stroke-width="1" opacity="0.3"/>
  
  <!-- Header -->
  <text x="250" y="55" text-anchor="middle" font-family="monospace" font-size="28" font-weight="bold" fill="#77FE80" filter="url(#glow)">🦖 BEEPER NFT</text>
  <text x="250" y="80" text-anchor="middle" font-family="monospace" font-size="14" fill="#666666">x402 V2 • ERC-1155 • Base</text>
  
  <!-- Dino Character -->
  <g transform="translate(250, 200)">
    <circle cx="0" cy="0" r="90" fill="none" stroke="#FFD700" stroke-width="3" opacity="0.4"/>
    <circle cx="0" cy="0" r="80" fill="#050505" stroke="#FFD700" stroke-width="2" opacity="0.8"/>
    <g filter="url(#glow)">
      <path d="M-35,-30 C-40,-45 -20,-55 15,-55 C45,-52 65,-35 68,-10 C70,10 60,30 40,35 C15,40 -20,35 -35,20 C-45,5 -42,-15 -35,-30 Z" fill="url(#dinoGrad)"/>
      <ellipse cx="55" cy="-15" rx="15" ry="20" fill="url(#dinoGrad)"/>
      <ellipse cx="-5" cy="-20" rx="20" ry="15" fill="#030303"/>
      <ellipse cx="-5" cy="-20" rx="14" ry="11" fill="#77FE80"/>
      <ellipse cx="-5" cy="-20" rx="6" ry="10" fill="#030303"/>
      <circle cx="-10" cy="-24" r="3" fill="#fff" opacity="0.9"/>
      <ellipse cx="58" cy="-8" rx="4" ry="3" fill="#030303"/>
      <path d="M20,20 Q45,28 65,15" fill="none" stroke="#4CAF50" stroke-width="2"/>
      <path d="M30,12 L33,22 L36,12 M42,8 L45,20 L48,8 M52,5 L55,16 L58,5" fill="#fff" stroke="#e8e8e8" stroke-width="1"/>
      <polygon points="-18,-52 -12,-68 -6,-52" fill="url(#dinoGrad)"/>
      <polygon points="0,-55 6,-70 12,-55" fill="url(#dinoGrad)"/>
    </g>
  </g>
  
  <!-- Rarity Badge -->
  <rect x="175" y="295" width="150" height="40" rx="20" fill="#FFD700" opacity="0.2"/>
  <rect x="175" y="295" width="150" height="40" rx="20" fill="none" stroke="#FFD700" stroke-width="2" filter="url(#rarityGlow)"/>
  <text x="250" y="322" text-anchor="middle" font-family="monospace" font-size="18" font-weight="bold" fill="#FFD700">X402</text>
  
  <!-- Token Info -->
  <text x="250" y="365" text-anchor="middle" font-family="monospace" font-size="16" fill="#FFFFFF">organix.base.eth</text>
  <text x="250" y="390" text-anchor="middle" font-family="monospace" font-size="12" fill="#888888">Token #1</text>
  
  <!-- Traits -->
  <text x="250" y="420" text-anchor="middle" font-family="monospace" font-size="11" fill="#666666">TRAITS: VOT • BASE • FARCASTER</text>
  
  <!-- Footer -->
  <text x="250" y="455" text-anchor="middle" font-family="monospace" font-size="11" fill="#77FE80">69,420 VOT • mcpvot.eth</text>
  <text x="250" y="475" text-anchor="middle" font-family="monospace" font-size="10" fill="#444444">ipfs • on-chain • gasless</text>
</svg>